<svg xmlns="http://www.w3.org/2000/svg" xmlns:xlink="http://www.w3.org/1999/xlink" xmlns:lucid="lucid" width="1871" height="1131"><g transform="translate(0 0)" lucid:page-tab-id="0_0"><path d="M20 26a6 6 0 0 1 6-6h1808a6 6 0 0 1 6 6v1068a6 6 0 0 1-6 6H26a6 6 0 0 1-6-6z" stroke="#3a414a" fill="#fff"/><path d="M100 806a6 6 0 0 1 6-6h668a6 6 0 0 1 6 6v237.5a6 6 0 0 1-6 6H106a6 6 0 0 1-6-6z" stroke="#3a414a" fill="#fff"/><path d="M160 366a6 6 0 0 1 6-6h268a6 6 0 0 1 6 6v88a6 6 0 0 1-6 6H166a6 6 0 0 1-6-6z" stroke="#3a414a" stroke-width="3" fill="#a7caf4"/><use xlink:href="#a" transform="matrix(1,0,0,1,172.00000000000003,372) translate(46.38671875000004 44.25390625)"/><path d="M640 366a6 6 0 0 1 6-6h268a6 6 0 0 1 6 6v88a6 6 0 0 1-6 6H646a6 6 0 0 1-6-6z" stroke="#3a414a" stroke-width="3" fill="#a7caf4"/><use xlink:href="#b" transform="matrix(1,0,0,1,652,372) translate(73.59114583333336 44.25390625)"/><path d="M1530 696a6 6 0 0 1 6-6h268a6 6 0 0 1 6 6v88a6 6 0 0 1-6 6h-268a6 6 0 0 1-6-6z" stroke="#3a414a" stroke-width="3" fill="#a7caf4"/><use xlink:href="#c" transform="matrix(1,0,0,1,1542,702) translate(66.79003906250003 44.25390625)"/><path d="M1140 366a6 6 0 0 1 6-6h268a6 6 0 0 1 6 6v88a6 6 0 0 1-6 6h-268a6 6 0 0 1-6-6z" stroke="#3a414a" stroke-width="3" fill="#a7caf4"/><use xlink:href="#d" transform="matrix(1,0,0,1,1152,372) translate(87.19335937500001 44.25390625)"/><path d="M588 520c17.67 0 32 17.9 32 40s-14.33 40-32 40h-96c-17.67 0-32-17.9-32-40s14.33-40 32-40z" stroke="#3a414a" stroke-width="3" fill="#ffe342"/><use xlink:href="#e" transform="matrix(1,0,0,1,465,525) translate(18.33333333333332 39.65277777777778)"/><path d="M588 260c17.67 0 32 17.9 32 40s-14.33 40-32 40h-96c-17.67 0-32-17.9-32-40s14.33-40 32-40z" stroke="#3a414a" stroke-width="3" fill="#ffe342"/><use xlink:href="#f" transform="matrix(1,0,0,1,465,264.99999999999994) translate(17.09876543209876 39.65277777777778)"/><path d="M1717.05 370c17.67 0 32 17.9 32 40s-14.33 40-32 40h-96c-17.68 0-32-17.9-32-40s14.32-40 32-40z" stroke="#3a414a" stroke-width="3" fill="#ffe342"/><use xlink:href="#g" transform="matrix(1,0,0,1,1594.0465157212532,375) translate(5.956790123456784 39.65277777777778)"/><path d="M1088 520c17.67 0 32 17.9 32 40s-14.33 40-32 40h-96c-17.67 0-32-17.9-32-40s14.33-40 32-40z" stroke="#3a414a" stroke-width="3" fill="#ffe342"/><use xlink:href="#h" transform="matrix(1,0,0,1,965,525) translate(26.913580246913575 39.65277777777778)"/><path d="M1088 260c17.67 0 32 17.9 32 40s-14.33 40-32 40h-96c-17.67 0-32-17.9-32-40s14.33-40 32-40z" stroke="#3a414a" stroke-width="3" fill="#ffe342"/><use xlink:href="#i" transform="matrix(1,0,0,1,965,264.99999999999994) translate(13.981481481481474 39.65277777777778)"/><path d="M1106.53 690c20.23 0 36.63 17.9 36.63 40s-16.4 40-36.63 40h-109.9C976.4 770 960 752.1 960 730s16.4-40 36.63-40z" stroke="#3a414a" stroke-width="3" fill="#ffe342"/><use xlink:href="#j" transform="matrix(1,0,0,1,965,695) translate(7.524691358024697 39.65277777777778)"/><path d="M100 222v182a6 6 0 0 0 6 6h31.92" stroke="#3a414a" stroke-width="3" fill="none"/><path d="M99.98 220.5l1.5-.05h.02v1.6h-3v-1.73z" stroke="#3a414a" stroke-width=".05" fill="#3a414a"/><path d="M153.68 410l-14.26 4.64v-9.28z" stroke="#3a414a" stroke-width="3" fill="#3a414a"/><use xlink:href="#k" transform="matrix(1,0,0,1,23.012345679012334,291.2991047373797) translate(0 14.222222222222223)"/><use xlink:href="#l" transform="matrix(1,0,0,1,23.012345679012334,291.2991047373797) translate(63.11111111111112 14.222222222222223)"/><path d="M349.06 462.95V554a6 6 0 0 0 6 6h82.82" stroke="#3a414a" stroke-width="3" fill="none"/><path d="M350.56 463h-3v-1.55h3z" stroke="#3a414a" stroke-width=".05" fill="#3a414a"/><path d="M453.64 560l-14.26 4.64v-9.28z" stroke="#3a414a" stroke-width="3" fill="#3a414a"/><use xlink:href="#m" transform="matrix(1,0,0,1,357.0623160579582,485.02499459197395) translate(0 14.222222222222223)"/><use xlink:href="#l" transform="matrix(1,0,0,1,357.0623160579582,485.02499459197395) translate(91.55555555555557 14.222222222222223)"/><path d="M623 560h121.15a6 6 0 0 0 6-6v-71.9" stroke="#008a0e" stroke-width="3" fill="none"/><path d="M623.04 561.5h-1.63l.1-1.48-.05-1.52h1.6z" stroke="#008a0e" stroke-width=".05" fill="#008a0e"/><path d="M750.15 466.33l4.64 14.26h-9.28z" stroke="#008a0e" stroke-width="3" fill="#008a0e"/><path d="M750.15 357.05V306a6 6 0 0 0-6-6H642.12" stroke="#3a414a" stroke-width="3" fill="none"/><path d="M751.65 358.54h-3v-1.53h3z" stroke="#3a414a" stroke-width=".05" fill="#3a414a"/><path d="M626.36 300l14.26-4.64v9.28z" stroke="#3a414a" stroke-width="3" fill="#3a414a"/><use xlink:href="#n" transform="matrix(1,0,0,1,659.7247474857642,270.03141175104236) translate(0 14.222222222222223)"/><use xlink:href="#l" transform="matrix(1,0,0,1,659.7247474857642,270.03141175104236) translate(77.82716049382717 14.222222222222223)"/><path d="M457 300H354.33a6 6 0 0 0-6 6v31.9" stroke="#008a0e" stroke-width="3" fill="none"/><path d="M458.5 299.98l.05 1.52h-1.6v-3h1.64z" stroke="#008a0e" stroke-width=".05" fill="#008a0e"/><path d="M348.33 353.67l-4.63-14.27h9.27z" stroke="#008a0e" stroke-width="3" fill="#008a0e"/><path d="M860.15 462.94V554a6 6 0 0 0 6 6h71.73" stroke="#3a414a" stroke-width="3" fill="none"/><path d="M861.65 462.98h-3v-1.54h3z" stroke="#3a414a" stroke-width=".05" fill="#3a414a"/><path d="M953.64 560l-14.26 4.64v-9.28z" stroke="#3a414a" stroke-width="3" fill="#3a414a"/><use xlink:href="#o" transform="matrix(1,0,0,1,868.1454711850325,491.99999999999994) translate(0 14.222222222222223)"/><use xlink:href="#l" transform="matrix(1,0,0,1,868.1454711850325,491.99999999999994) translate(76.88888888888889 14.222222222222223)"/><path d="M1123 560h151a6 6 0 0 0 6-6v-71.92" stroke="#008a0e" stroke-width="3" fill="none"/><path d="M1123.04 561.5h-1.63l.1-1.48-.05-1.52h1.6z" stroke="#008a0e" stroke-width=".05" fill="#008a0e"/><path d="M1280 466.32l4.64 14.26h-9.28z" stroke="#008a0e" stroke-width="3" fill="#008a0e"/><path d="M1280 357.04V306a6 6 0 0 0-6-6h-131.88" stroke="#3a414a" stroke-width="3" fill="none"/><path d="M1281.5 358.54h-3V357h3z" stroke="#3a414a" stroke-width=".05" fill="#3a414a"/><path d="M1126.36 300l14.26-4.64v9.28z" stroke="#3a414a" stroke-width="3" fill="#3a414a"/><use xlink:href="#p" transform="matrix(1,0,0,1,1166.4164088134446,274.6666666666666) translate(0 14.222222222222223)"/><use xlink:href="#l" transform="matrix(1,0,0,1,1166.4164088134446,274.6666666666666) translate(97.58024691358025 14.222222222222223)"/><path d="M957 300h-89.43a6 6 0 0 0-6 6v31.9" stroke="#008a0e" stroke-width="3" fill="none"/><path d="M958.5 299.98l.05 1.52h-1.6v-3h1.64z" stroke="#008a0e" stroke-width=".05" fill="#008a0e"/><path d="M861.57 353.66l-4.64-14.27h9.28z" stroke="#008a0e" stroke-width="3" fill="#008a0e"/><path d="M1040 602.5v11m0 11v11l-.07.94-.22.9-.35.88-.5.8-.6.72-.72.6-.8.5-.88.37-.9.23h-9.53m-9.53 0h-19.05m-9.53 0l-19.04.02m-9.53 0H939.7m-9.52 0l-19.04.02m-9.53 0h-19.03m-9.53 0H854m-9.53.02h-19.04m-9.53 0h-9.52l-.94-.07-.9-.22-.88-.35-.8-.5-.72-.6-.6-.72-.5-.8-.37-.88-.22-.9V626m0-10.43l-.02-20.86m0-10.42v-20.86m-.02-10.44v-20.86m0-10.43V500.8m-.02-10.43v-10.44" stroke="#e81313" stroke-width="2" fill="none"/><path d="M1041 602.53h-2v-1.03h2z" stroke="#e81313" stroke-width=".05" fill="#e81313"/><path d="M800.38 464.7l4.63 14.26h-9.26z" stroke="#e81313" stroke-width="2" fill="#e81313"/><path d="M1422.96 410h143.97" stroke="#3a414a" stroke-width="3" fill="none"/><path d="M1423 411.5h-1.54v-3h1.54z" stroke="#3a414a" stroke-width=".05" fill="#3a414a"/><path d="M1582.7 410l-14.27 4.64v-9.28z" stroke="#3a414a" stroke-width="3" fill="#3a414a"/><use xlink:href="#q" transform="matrix(1,0,0,1,1454.331658318473,414) translate(0 14.222222222222223)"/><use xlink:href="#l" transform="matrix(1,0,0,1,1454.331658318473,414) translate(94.46913580246914 14.222222222222223)"/><path d="M800.38 357.03V236a6 6 0 0 1 6-6h835.48a6 6 0 0 1 6 6v111.88" stroke="#3a414a" stroke-width="3" fill="none"/><path d="M801.88 358.53h-3V357h3z" stroke="#3a414a" stroke-width=".05" fill="#3a414a"/><path d="M1647.86 363.65l-4.64-14.27h9.27z" stroke="#3a414a" stroke-width="3" fill="#3a414a"/><use xlink:href="#q" transform="matrix(1,0,0,1,1432.590369227678,234) translate(0 14.222222222222223)"/><use xlink:href="#l" transform="matrix(1,0,0,1,1432.590369227678,234) translate(94.46913580246914 14.222222222222223)"/><path d="M252.2 357.05V196a6 6 0 0 1 6-6h1436.4a6 6 0 0 1 6 6v151.88" stroke="#3a414a" stroke-width="3" fill="none"/><path d="M253.7 358.55h-3V357h3z" stroke="#3a414a" stroke-width=".05" fill="#3a414a"/><path d="M1700.6 363.65l-4.63-14.27h9.27z" stroke="#3a414a" stroke-width="3" fill="#3a414a"/><use xlink:href="#q" transform="matrix(1,0,0,1,877.6741736198671,164.66666666666666) translate(0 14.222222222222223)"/><use xlink:href="#l" transform="matrix(1,0,0,1,877.6741736198671,164.66666666666666) translate(94.46913580246914 14.222222222222223)"/><path d="M1670 453v214.92" stroke="#008a0e" stroke-width="3" fill="none"/><path d="M1671.5 453.04h-3v-1.54h3z" stroke="#008a0e" stroke-width=".05" fill="#008a0e"/><path d="M1670 683.68l-4.64-14.26h9.28z" stroke="#008a0e" stroke-width="3" fill="#008a0e"/><path d="M1670 792.96v185.42" stroke="#3a414a" stroke-width="3" fill="none"/><path d="M1671.5 793h-3v-1.54h3z" stroke="#3a414a" stroke-width=".05" fill="#3a414a"/><path d="M1670 994.15l-4.64-14.27h9.28z" stroke="#3a414a" stroke-width="3" fill="#3a414a"/><use xlink:href="#r" transform="matrix(1,0,0,1,1677.9999999999998,884.564753210904) translate(0 14.222222222222223)"/><use xlink:href="#l" transform="matrix(1,0,0,1,1677.9999999999998,884.564753210904) translate(74.8641975308642 14.222222222222223)"/><path d="M620 600c0 11.05-8.95 20-20 20s-20-8.95-20-20 8.95-20 20-20 20 8.95 20 20zm-34.14-14.14l28.28 28.28m-28.28 0l28.28-28.28M620 340c0 11.05-8.95 20-20 20s-20-8.95-20-20 8.95-20 20-20 20 8.95 20 20zm-34.14-14.14l28.28 28.28m-28.28 0l28.28-28.28M1120 340c0 11.05-8.95 20-20 20s-20-8.95-20-20 8.95-20 20-20 20 8.95 20 20zm-34.14-14.14l28.28 28.28m-28.28 0l28.28-28.28M1120 600c0 11.05-8.95 20-20 20s-20-8.95-20-20 8.95-20 20-20 20 8.95 20 20zm-34.14-14.14l28.28 28.28m-28.28 0l28.28-28.28M1760 440c0 11.05-8.95 20-20 20s-20-8.95-20-20 8.95-20 20-20 20 8.95 20 20zm-34.14-14.14l28.28 28.28m-28.28 0l28.28-28.28M1000 770c0 11.05-8.95 20-20 20s-20-8.95-20-20 8.95-20 20-20 20 8.95 20 20z" stroke="#3a414a" fill="#e81313"/><path d="M1145.67 730h10.12m10.1 0h20.25m10.12 0h20.24m10.13 0h20.25m10.12 0h20.24m10.12 0h20.24m10.12 0h20.25m10.12 0h20.23m10.12 0h20.24m10.1 0h20.26m10.12 0h20.24m10.12 0h20.24m10.13 0h10.13" stroke="#e81313" stroke-width="2" fill="none"/><path d="M1145.7 731h-1.1l.07-.98-.04-1.02h1.06z" stroke="#e81313" stroke-width=".05" fill="#e81313"/><path d="M1525.3 730l-14.27 4.64v-9.28z" stroke="#e81313" stroke-width="2" fill="#e81313"/><path d="M957 730H254.8a6 6 0 0 1-6-6V482.1" stroke="#008a0e" stroke-width="3" fill="none"/><path d="M958.5 729.98l.05 1.52h-1.6v-3h1.64z" stroke="#008a0e" stroke-width=".05" fill="#008a0e"/><path d="M248.8 466.33l4.63 14.27h-9.27z" stroke="#008a0e" stroke-width="3" fill="#008a0e"/><path d="M180 829.5c0 11.05-8.95 20-20 20s-20-8.95-20-20 8.95-20 20-20 20 8.95 20 20z" stroke="#3a414a" stroke-width="3" fill="#282c33"/><use xlink:href="#s" transform="matrix(1,0,0,1,145,814.5) translate(7.597592592592593 19.65277777777778)"/><path d="M180 999.5c0 11.05-8.95 20-20 20s-20-8.95-20-20 8.95-20 20-20 20 8.95 20 20zm-34.14-14.14l28.28 28.28m-28.28 0l28.28-28.28" stroke="#3a414a" fill="#e81313"/><path d="M120 875.5a6 6 0 0 1 6-6h68a6 6 0 0 1 6 6v28a6 6 0 0 1-6 6h-68a6 6 0 0 1-6-6z" stroke="#3a414a" stroke-width="3" fill="#a7caf4"/><path d="M184 929.5c8.84 0 16 6.72 16 15 0 8.28-7.16 15-16 15h-48c-8.84 0-16-6.72-16-15 0-8.28 7.16-15 16-15z" stroke="#3a414a" stroke-width="3" fill="#ffe342"/><path d="M520 829.5c0 11.05-8.95 20-20 20s-20-8.95-20-20 8.95-20 20-20 20 8.95 20 20z" stroke="#3a414a" fill="#e81313"/><path d="M160 810.5a6 6 0 0 1 6-6h228a6 6 0 0 1 6 6v48a6 6 0 0 1-6 6H166a6 6 0 0 1-6-6z" stroke="#000" stroke-opacity="0" fill="#fff" fill-opacity="0"/><use xlink:href="#t" transform="matrix(1,0,0,1,165,809.5) translate(70.58333333333334 28.499999999999993)"/><path d="M180 866a6 6 0 0 1 6-6h228a6 6 0 0 1 6 6v48a6 6 0 0 1-6 6H186a6 6 0 0 1-6-6z" stroke="#000" stroke-opacity="0" fill="#fff" fill-opacity="0"/><use xlink:href="#u" transform="matrix(1,0,0,1,185,865) translate(51.84012345679015 29.211111111111105)"/><use xlink:href="#v" transform="matrix(1,0,0,1,185,865) translate(122.45617283950617 29.211111111111105)"/><path d="M220 926a6 6 0 0 1 6-6h188a6 6 0 0 1 6 6v37.5a6 6 0 0 1-6 6H226a6 6 0 0 1-6-6z" stroke="#000" stroke-opacity="0" fill="#fff" fill-opacity="0"/><use xlink:href="#w" transform="matrix(1,0,0,1,225,925) translate(6.309259259259278 24.21111111111111)"/><use xlink:href="#x" transform="matrix(1,0,0,1,225,925) translate(127.98703703703703 24.21111111111111)"/><path d="M160 980.5a6 6 0 0 1 6-6h228a6 6 0 0 1 6 6v48a6 6 0 0 1-6 6H166a6 6 0 0 1-6-6z" stroke="#000" stroke-opacity="0" fill="#fff" fill-opacity="0"/><use xlink:href="#y" transform="matrix(1,0,0,1,165,979.5) translate(60.13888888888891 28.499999999999993)"/><use xlink:href="#z" transform="matrix(1,0,0,1,165,979.5) translate(65.69444444444446 28.499999999999993)"/><use xlink:href="#A" transform="matrix(1,0,0,1,165,979.5) translate(115.52777777777777 28.499999999999993)"/><path d="M500 806a6 6 0 0 1 6-6h228a6 6 0 0 1 6 6v48a6 6 0 0 1-6 6H506a6 6 0 0 1-6-6z" stroke="#000" stroke-opacity="0" fill="#fff" fill-opacity="0"/><use xlink:href="#B" transform="matrix(1,0,0,1,505,805) translate(60.11111111111113 28.499999999999993)"/><use xlink:href="#C" transform="matrix(1,0,0,1,505,805) translate(109.94444444444444 28.499999999999993)"/><path d="M520 920.75a6 6 0 0 1 6-6h208a6 6 0 0 1 6 6v48a6 6 0 0 1-6 6H526a6 6 0 0 1-6-6z" stroke="#000" stroke-opacity="0" fill="#fff" fill-opacity="0"/><use xlink:href="#D" transform="matrix(1,0,0,1,525,919.75) translate(40.638888888888914 28.499999999999993)"/><use xlink:href="#E" transform="matrix(1,0,0,1,525,919.75) translate(72.86111111111113 28.499999999999993)"/><path d="M540 866a6 6 0 0 1 6-6h228a6 6 0 0 1 6 6v48a6 6 0 0 1-6 6H546a6 6 0 0 1-6-6z" stroke="#000" stroke-opacity="0" fill="#fff" fill-opacity="0"/><use xlink:href="#F" transform="matrix(1,0,0,1,545,865) translate(8.988888888888908 29.21111111111111)"/><use xlink:href="#G" transform="matrix(1,0,0,1,545,865) translate(20.593827160493845 29.21111111111111)"/><use xlink:href="#H" transform="matrix(1,0,0,1,545,865) translate(136.4691358024691 29.21111111111111)"/><path d="M540 985.5a6 6 0 0 1 6-6h148a6 6 0 0 1 6 6v48a6 6 0 0 1-6 6H546a6 6 0 0 1-6-6z" stroke="#000" stroke-opacity="0" fill="#fff" fill-opacity="0"/><use xlink:href="#y" transform="matrix(1,0,0,1,545,984.5) translate(14.527777777777793 28.499999999999993)"/><use xlink:href="#I" transform="matrix(1,0,0,1,545,984.5) translate(20.083333333333346 28.499999999999993)"/><use xlink:href="#J" transform="matrix(1,0,0,1,545,984.5) translate(52.305555555555564 28.499999999999993)"/><path d="M540 602.5v11m0 11v11l-.07.94-.22.9-.35.88-.5.8-.6.72-.72.6-.8.5-.88.37-.9.23h-9.55m-9.54 0h-19.08m-9.54 0l-19.08.02m-9.53 0h-19.08m-9.54 0l-19.07.02m-9.54 0h-19.1m-9.53 0H353.7m-9.54.02h-19.08m-9.54 0H306l-.94-.07-.9-.22-.88-.35-.8-.5-.72-.6-.6-.72-.5-.8-.37-.88-.23-.9V626m0-10.42l-.02-20.87m0-10.42v-20.86m-.02-10.43V532.1m0-10.43l-.02-20.87m0-10.43v-10.43" stroke="#e81313" stroke-width="2" fill="none"/><path d="M541 602.53h-2v-1.03h2z" stroke="#e81313" stroke-width=".05" fill="#e81313"/><path d="M300 464.7l4.64 14.27h-9.28z" stroke="#e81313" stroke-width="2" fill="#e81313"/><path d="M461.5 889.5h57.88M461.54 889.5H460" stroke="#282c33" stroke-width="3" fill="none"/><path d="M534.65 889.88l-14.38 4.28.23-9.27z" stroke="#282c33" stroke-width="3" fill="#282c33"/><path d="M461.5 949.5h57.88M461.54 949.5H460" stroke="#008a0e" stroke-width="3" fill="none"/><path d="M534.65 949.88l-14.38 4.28.23-9.27z" stroke="#008a0e" stroke-width="3" fill="#008a0e"/><path d="M461 1009.5h10.08m10.1 0h20.15m10.08 0h10.1M461.03 1009.5H460" stroke="#e81313" stroke-width="2" fill="none"/><path d="M536.26 1009.9l-14.38 4.25.25-9.27z" stroke="#e81313" stroke-width="2" fill="#e81313"/><path d="M720 26a6 6 0 0 1 6-6h428a6 6 0 0 1 6 6v72.67a6 6 0 0 1-6 6H726a6 6 0 0 1-6-6z" stroke="#000" stroke-opacity="0" fill="#fff" fill-opacity="0"/><g><use xlink:href="#K" transform="matrix(1,0,0,1,725,25) translate(66.53086419753089 43.638888888888886)"/><use xlink:href="#L" transform="matrix(1,0,0,1,725,25) translate(159.77777777777777 43.638888888888886)"/><use xlink:href="#M" transform="matrix(1,0,0,1,725,25) translate(242.65432098765433 43.638888888888886)"/></g><path d="M120 200c0 11.05-8.95 20-20 20s-20-8.95-20-20 8.95-20 20-20 20 8.95 20 20zM1690 1019.5c0 11.05-8.95 20-20 20s-20-8.95-20-20 8.95-20 20-20 20 8.95 20 20z" stroke="#3a414a" fill="#282c33"/><g><path d="M420.5 800.25a.25.25 0 0 1 .25.25v249a.25.25 0 0 1-.25.25.25.25 0 0 1-.25-.25v-249a.25.25 0 0 1 .25-.25z" stroke="#3a414a" stroke-width=".5" fill="none"/></g><defs><path fill="#282c33" d="M1100-543c2 361-147 563-501 563-342 0-470-199-470-548v-821h295v818c3 172 13 322 183 320 173-2 198-150 198-330v-808h295v806" id="N"/><path fill="#282c33" d="M865-312c-44-312-23-686-28-1037h257V0H748L364-1010c44 304 24 668 28 1010H135v-1349h337" id="O"/><path fill="#282c33" d="M872-915c-35-112-84-223-220-223-91 0-156 41-204 116-89 137-87 550 2 688 51 79 116 122 209 122 150 0 197-126 240-244l273 52C1094-168 961 20 656 20 239 20 80-262 80-681c0-418 154-689 568-689 289 0 425 167 496 389" id="P"/><path fill="#282c33" d="M615-1370c385 0 542 273 542 691 0 230-47 404-140 522S790 20 615 20C231 20 72-262 72-679c0-419 158-691 543-691zM797-330c77-133 78-564 0-695-44-73-101-113-182-113s-139 40-183 114c-79 133-78 560 0 694 45 77 102 118 183 118s138-41 182-118" id="Q"/><path fill="#282c33" d="M462-1121v384h621v228H462V0H167v-1349h939v228H462" id="R"/><path fill="#282c33" d="M157-1349h916v228H757v893h316V0H157v-228h316v-893H157v-228" id="S"/><path fill="#282c33" d="M650-216c90 0 157-35 208-74v-235H584v-218h544v558C1004-84 858 20 635 20 235 20 80-276 80-681c0-416 146-689 558-689 277 0 398 160 462 375l-274 54c-31-108-73-197-185-197-231 0-262 217-262 457 0 149 22 263 67 344s113 121 204 121" id="T"/><path fill="#282c33" d="M1157-949c0 209-118 316-279 368L1227 0H895L605-515H432V0H137v-1349h494c317-2 526 111 526 400zM608-744c158 1 248-51 252-193 5-207-223-184-428-183v376h176" id="U"/><path fill="#282c33" d="M137 0v-1349h968v228H432v324h612v228H432v341h714V0H137" id="V"/><path fill="#282c33" d="M496-1349c439 0 656 222 653 664C1146-265 969 0 556 0H135v-1349h361zm36 1121c245-7 319-187 320-457 1-273-91-439-361-436h-61v893h102" id="W"/><g id="a"><use transform="matrix(0.01106770833333333,0,0,0.01106770833333333,0,0)" xlink:href="#N"/><use transform="matrix(0.01106770833333333,0,0,0.01106770833333333,13.602213541666663,0)" xlink:href="#O"/><use transform="matrix(0.01106770833333333,0,0,0.01106770833333333,27.204427083333325,0)" xlink:href="#P"/><use transform="matrix(0.01106770833333333,0,0,0.01106770833333333,40.806640624999986,0)" xlink:href="#Q"/><use transform="matrix(0.01106770833333333,0,0,0.01106770833333333,54.40885416666665,0)" xlink:href="#O"/><use transform="matrix(0.01106770833333333,0,0,0.01106770833333333,68.01106770833331,0)" xlink:href="#R"/><use transform="matrix(0.01106770833333333,0,0,0.01106770833333333,81.61328124999997,0)" xlink:href="#S"/><use transform="matrix(0.01106770833333333,0,0,0.01106770833333333,95.21549479166661,0)" xlink:href="#T"/><use transform="matrix(0.01106770833333333,0,0,0.01106770833333333,108.81770833333329,0)" xlink:href="#N"/><use transform="matrix(0.01106770833333333,0,0,0.01106770833333333,122.41992187499994,0)" xlink:href="#U"/><use transform="matrix(0.01106770833333333,0,0,0.01106770833333333,136.0221354166666,0)" xlink:href="#V"/><use transform="matrix(0.01106770833333333,0,0,0.01106770833333333,149.62434895833326,0)" xlink:href="#W"/></g><path fill="#282c33" d="M1229 0H935l-92-330H387L295 0H0l443-1349h344zM615-1167c-46 213-110 412-166 615h332c-56-204-119-401-166-615" id="X"/><path fill="#282c33" d="M762-1121V0H467v-1121H61v-228h1107v228H762" id="Y"/><path fill="#282c33" d="M766 0H467L3-1349h308c102 347 212 687 307 1041 91-356 204-694 304-1041h305" id="Z"/><g id="b"><use transform="matrix(0.01106770833333333,0,0,0.01106770833333333,0,0)" xlink:href="#S"/><use transform="matrix(0.01106770833333333,0,0,0.01106770833333333,13.602213541666663,0)" xlink:href="#O"/><use transform="matrix(0.01106770833333333,0,0,0.01106770833333333,27.204427083333325,0)" xlink:href="#X"/><use transform="matrix(0.01106770833333333,0,0,0.01106770833333333,40.806640624999986,0)" xlink:href="#P"/><use transform="matrix(0.01106770833333333,0,0,0.01106770833333333,54.40885416666665,0)" xlink:href="#Y"/><use transform="matrix(0.01106770833333333,0,0,0.01106770833333333,68.01106770833331,0)" xlink:href="#S"/><use transform="matrix(0.01106770833333333,0,0,0.01106770833333333,81.61328124999997,0)" xlink:href="#Z"/><use transform="matrix(0.01106770833333333,0,0,0.01106770833333333,95.21549479166661,0)" xlink:href="#V"/></g><path fill="#282c33" d="M211 0v-1349h295v1121h616V0H211" id="aa"/><path fill="#282c33" d="M1138 0H87v-209l671-909H163v-231h934v205L426-231h712V0" id="ab"/><g id="c"><use transform="matrix(0.01106770833333333,0,0,0.01106770833333333,0,0)" xlink:href="#R"/><use transform="matrix(0.01106770833333333,0,0,0.01106770833333333,13.602213541666663,0)" xlink:href="#S"/><use transform="matrix(0.01106770833333333,0,0,0.01106770833333333,27.204427083333325,0)" xlink:href="#O"/><use transform="matrix(0.01106770833333333,0,0,0.01106770833333333,40.806640624999986,0)" xlink:href="#X"/><use transform="matrix(0.01106770833333333,0,0,0.01106770833333333,54.40885416666665,0)" xlink:href="#aa"/><use transform="matrix(0.01106770833333333,0,0,0.01106770833333333,68.01106770833331,0)" xlink:href="#S"/><use transform="matrix(0.01106770833333333,0,0,0.01106770833333333,81.61328124999997,0)" xlink:href="#ab"/><use transform="matrix(0.01106770833333333,0,0,0.01106770833333333,95.21549479166661,0)" xlink:href="#V"/><use transform="matrix(0.01106770833333333,0,0,0.01106770833333333,108.81770833333329,0)" xlink:href="#W"/></g><g id="d"><use transform="matrix(0.01106770833333333,0,0,0.01106770833333333,0,0)" xlink:href="#X"/><use transform="matrix(0.01106770833333333,0,0,0.01106770833333333,13.602213541666663,0)" xlink:href="#P"/><use transform="matrix(0.01106770833333333,0,0,0.01106770833333333,27.204427083333325,0)" xlink:href="#Y"/><use transform="matrix(0.01106770833333333,0,0,0.01106770833333333,40.806640624999986,0)" xlink:href="#S"/><use transform="matrix(0.01106770833333333,0,0,0.01106770833333333,54.40885416666665,0)" xlink:href="#Z"/><use transform="matrix(0.01106770833333333,0,0,0.01106770833333333,68.01106770833331,0)" xlink:href="#V"/></g><path fill="#282c33" d="M212-179c-10-28-35-45-73-45-59 0-87 40-87 99 0 60 29 101 89 101 43 0 62-24 78-52l27 14C228-24 195 4 139 4 59 4 22-46 18-125c-6-104 99-153 187-111 19 9 31 26 39 46" id="ac"/><path fill="#282c33" d="M100-194c62-1 85 37 85 99 1 63-27 99-86 99S16-35 15-95c0-66 28-99 85-99zM99-20c44 1 53-31 53-75 0-43-8-75-51-75s-53 32-53 75 10 74 51 75" id="ad"/><path fill="#282c33" d="M117-194c89-4 53 116 60 194h-32v-121c0-31-8-49-39-48C34-167 62-67 57 0H25l-1-190h30c1 10-1 24 2 32 11-22 29-35 61-36" id="ae"/><path fill="#282c33" d="M101-234c-31-9-42 10-38 44h38v23H63V0H32v-167H5v-23h27c-7-52 17-82 69-68v24" id="af"/><path fill="#282c33" d="M24-231v-30h32v30H24zM24 0v-190h32V0H24" id="ag"/><path fill="#282c33" d="M177-190C167-65 218 103 67 71c-23-6-38-20-44-43l32-5c15 47 100 32 89-28v-30C133-14 115 1 83 1 29 1 15-40 15-95c0-56 16-97 71-98 29-1 48 16 59 35 1-10 0-23 2-32h30zM94-22c36 0 50-32 50-73 0-42-14-75-50-75-39 0-46 34-46 75s6 73 46 73" id="ah"/><path fill="#282c33" d="M84 4C-5 8 30-112 23-190h32v120c0 31 7 50 39 49 72-2 45-101 50-169h31l1 190h-30c-1-10 1-25-2-33-11 22-28 36-60 37" id="ai"/><path fill="#282c33" d="M114-163C36-179 61-72 57 0H25l-1-190h30c1 12-1 29 2 39 6-27 23-49 58-41v29" id="aj"/><g id="e"><use transform="matrix(0.06172839506172839,0,0,0.06172839506172839,0,0)" xlink:href="#ac"/><use transform="matrix(0.06172839506172839,0,0,0.06172839506172839,15.987654320987653,0)" xlink:href="#ad"/><use transform="matrix(0.06172839506172839,0,0,0.06172839506172839,28.333333333333332,0)" xlink:href="#ae"/><use transform="matrix(0.06172839506172839,0,0,0.06172839506172839,40.67901234567901,0)" xlink:href="#af"/><use transform="matrix(0.06172839506172839,0,0,0.06172839506172839,46.851851851851855,0)" xlink:href="#ag"/><use transform="matrix(0.06172839506172839,0,0,0.06172839506172839,51.7283950617284,0)" xlink:href="#ah"/><use transform="matrix(0.06172839506172839,0,0,0.06172839506172839,64.07407407407408,0)" xlink:href="#ai"/><use transform="matrix(0.06172839506172839,0,0,0.06172839506172839,76.41975308641976,0)" xlink:href="#aj"/><use transform="matrix(0.06172839506172839,0,0,0.06172839506172839,83.76543209876544,0)" xlink:href="#ag"/><use transform="matrix(0.06172839506172839,0,0,0.06172839506172839,88.64197530864199,0)" xlink:href="#ae"/><use transform="matrix(0.06172839506172839,0,0,0.06172839506172839,100.98765432098767,0)" xlink:href="#ah"/></g><path fill="#282c33" d="M24 0v-261h32V0H24" id="ak"/><path fill="#282c33" d="M100-194c63 0 86 42 84 106H49c0 40 14 67 53 68 26 1 43-12 49-29l28 8c-11 28-37 45-77 45C44 4 14-33 15-96c1-61 26-98 85-98zm52 81c6-60-76-77-97-28-3 7-6 17-6 28h103" id="al"/><path fill="#282c33" d="M141-36C126-15 110 5 73 4 37 3 15-17 15-53c-1-64 63-63 125-63 3-35-9-54-41-54-24 1-41 7-42 31l-33-3c5-37 33-52 76-52 45 0 72 20 72 64v82c-1 20 7 32 28 27v20c-31 9-61-2-59-35zM48-53c0 20 12 33 32 33 41-3 63-29 60-74-43 2-92-5-92 41" id="am"/><path fill="#282c33" d="M232-93c-1 65-40 97-104 97C67 4 28-28 28-90v-158h33c8 89-33 224 67 224 102 0 64-133 71-224h33v155" id="an"/><path fill="#282c33" d="M115-194c55 1 70 41 70 98S169 2 115 4C84 4 66-9 55-30l1 105H24l-1-265h31l2 30c10-21 28-34 59-34zm-8 174c40 0 45-34 45-75s-6-73-45-74c-42 0-51 32-51 76 0 43 10 73 51 73" id="ao"/><g id="f"><use transform="matrix(0.06172839506172839,0,0,0.06172839506172839,0,0)" xlink:href="#ac"/><use transform="matrix(0.06172839506172839,0,0,0.06172839506172839,15.987654320987653,0)" xlink:href="#ak"/><use transform="matrix(0.06172839506172839,0,0,0.06172839506172839,20.864197530864196,0)" xlink:href="#al"/><use transform="matrix(0.06172839506172839,0,0,0.06172839506172839,33.20987654320987,0)" xlink:href="#am"/><use transform="matrix(0.06172839506172839,0,0,0.06172839506172839,45.55555555555555,0)" xlink:href="#ae"/><use transform="matrix(0.06172839506172839,0,0,0.06172839506172839,57.90123456790123,0)" xlink:href="#ag"/><use transform="matrix(0.06172839506172839,0,0,0.06172839506172839,62.77777777777777,0)" xlink:href="#ae"/><use transform="matrix(0.06172839506172839,0,0,0.06172839506172839,75.12345679012346,0)" xlink:href="#ah"/><use transform="matrix(0.06172839506172839,0,0,0.06172839506172839,87.46913580246914,0)" xlink:href="#an"/><use transform="matrix(0.06172839506172839,0,0,0.06172839506172839,103.4567901234568,0)" xlink:href="#ao"/></g><path fill="#282c33" d="M185-189c-5-48-123-54-124 2 14 75 158 14 163 119 3 78-121 87-175 55-17-10-28-26-33-46l33-7c5 56 141 63 141-1 0-78-155-14-162-118-5-82 145-84 179-34 5 7 8 16 11 25" id="ap"/><path fill="#282c33" d="M106-169C34-169 62-67 57 0H25v-261h32l-1 103c12-21 28-36 61-36 89 0 53 116 60 194h-32v-121c2-32-8-49-39-48" id="aq"/><path fill="#282c33" d="M59-47c-2 24 18 29 38 22v24C64 9 27 4 27-40v-127H5v-23h24l9-43h21v43h35v23H59v120" id="ar"/><path fill="#282c33" d="M30-248c118-7 216 8 213 122C240-48 200 0 122 0H30v-248zM63-27c89 8 146-16 146-99s-60-101-146-95v194" id="as"/><path fill="#282c33" d="M206 0h-36l-40-164L89 0H53L-1-190h32L70-26l43-164h34l41 164 42-164h31" id="at"/><g id="g"><use transform="matrix(0.06172839506172839,0,0,0.06172839506172839,0,0)" xlink:href="#ap"/><use transform="matrix(0.06172839506172839,0,0,0.06172839506172839,14.814814814814813,0)" xlink:href="#aq"/><use transform="matrix(0.06172839506172839,0,0,0.06172839506172839,27.160493827160494,0)" xlink:href="#ai"/><use transform="matrix(0.06172839506172839,0,0,0.06172839506172839,39.50617283950617,0)" xlink:href="#ar"/><use transform="matrix(0.06172839506172839,0,0,0.06172839506172839,45.67901234567901,0)" xlink:href="#ar"/><use transform="matrix(0.06172839506172839,0,0,0.06172839506172839,51.851851851851855,0)" xlink:href="#ag"/><use transform="matrix(0.06172839506172839,0,0,0.06172839506172839,56.7283950617284,0)" xlink:href="#ae"/><use transform="matrix(0.06172839506172839,0,0,0.06172839506172839,69.07407407407408,0)" xlink:href="#ah"/><use transform="matrix(0.06172839506172839,0,0,0.06172839506172839,81.41975308641976,0)" xlink:href="#as"/><use transform="matrix(0.06172839506172839,0,0,0.06172839506172839,97.40740740740742,0)" xlink:href="#ad"/><use transform="matrix(0.06172839506172839,0,0,0.06172839506172839,109.7530864197531,0)" xlink:href="#at"/><use transform="matrix(0.06172839506172839,0,0,0.06172839506172839,125.74074074074076,0)" xlink:href="#ae"/></g><path fill="#282c33" d="M205 0l-28-72H64L36 0H1l101-248h38L239 0h-34zm-38-99l-47-123c-12 45-31 82-46 123h93" id="au"/><path fill="#282c33" d="M96-169c-40 0-48 33-48 73s9 75 48 75c24 0 41-14 43-38l32 2c-6 37-31 61-74 61-59 0-76-41-82-99-10-93 101-131 147-64 4 7 5 14 7 22l-32 3c-4-21-16-35-41-35" id="av"/><path fill="#282c33" d="M108 0H70L1-190h34L89-25l56-165h34" id="aw"/><g id="h"><use transform="matrix(0.06172839506172839,0,0,0.06172839506172839,0,0)" xlink:href="#au"/><use transform="matrix(0.06172839506172839,0,0,0.06172839506172839,14.814814814814813,0)" xlink:href="#av"/><use transform="matrix(0.06172839506172839,0,0,0.06172839506172839,25.925925925925924,0)" xlink:href="#ar"/><use transform="matrix(0.06172839506172839,0,0,0.06172839506172839,32.098765432098766,0)" xlink:href="#ag"/><use transform="matrix(0.06172839506172839,0,0,0.06172839506172839,36.97530864197531,0)" xlink:href="#aw"/><use transform="matrix(0.06172839506172839,0,0,0.06172839506172839,48.08641975308642,0)" xlink:href="#am"/><use transform="matrix(0.06172839506172839,0,0,0.06172839506172839,60.432098765432094,0)" xlink:href="#ar"/><use transform="matrix(0.06172839506172839,0,0,0.06172839506172839,66.60493827160494,0)" xlink:href="#ag"/><use transform="matrix(0.06172839506172839,0,0,0.06172839506172839,71.48148148148148,0)" xlink:href="#ae"/><use transform="matrix(0.06172839506172839,0,0,0.06172839506172839,83.82716049382717,0)" xlink:href="#ah"/></g><g id="i"><use transform="matrix(0.06172839506172839,0,0,0.06172839506172839,0,0)" xlink:href="#as"/><use transform="matrix(0.06172839506172839,0,0,0.06172839506172839,15.987654320987653,0)" xlink:href="#al"/><use transform="matrix(0.06172839506172839,0,0,0.06172839506172839,28.333333333333332,0)" xlink:href="#am"/><use transform="matrix(0.06172839506172839,0,0,0.06172839506172839,40.67901234567901,0)" xlink:href="#av"/><use transform="matrix(0.06172839506172839,0,0,0.06172839506172839,51.79012345679013,0)" xlink:href="#ar"/><use transform="matrix(0.06172839506172839,0,0,0.06172839506172839,57.96296296296297,0)" xlink:href="#ag"/><use transform="matrix(0.06172839506172839,0,0,0.06172839506172839,62.83950617283951,0)" xlink:href="#aw"/><use transform="matrix(0.06172839506172839,0,0,0.06172839506172839,73.95061728395062,0)" xlink:href="#am"/><use transform="matrix(0.06172839506172839,0,0,0.06172839506172839,86.2962962962963,0)" xlink:href="#ar"/><use transform="matrix(0.06172839506172839,0,0,0.06172839506172839,92.46913580246914,0)" xlink:href="#ag"/><use transform="matrix(0.06172839506172839,0,0,0.06172839506172839,97.34567901234568,0)" xlink:href="#ae"/><use transform="matrix(0.06172839506172839,0,0,0.06172839506172839,109.69135802469137,0)" xlink:href="#ah"/></g><path fill="#282c33" d="M30 0v-248h187v28H63v79h144v27H63v87h162V0H30" id="ax"/><path fill="#282c33" d="M30-248c87 1 191-15 191 75 0 78-77 80-158 76V0H30v-248zm33 125c57 0 124 11 124-50 0-59-68-47-124-48v98" id="ay"/><path fill="#282c33" d="M135-143c-3-34-86-38-87 0 15 53 115 12 119 90S17 21 10-45l28-5c4 36 97 45 98 0-10-56-113-15-118-90-4-57 82-63 122-42 12 7 21 19 24 35" id="az"/><g id="j"><use transform="matrix(0.06172839506172839,0,0,0.06172839506172839,0,0)" xlink:href="#ax"/><use transform="matrix(0.06172839506172839,0,0,0.06172839506172839,14.814814814814813,0)" xlink:href="#aj"/><use transform="matrix(0.06172839506172839,0,0,0.06172839506172839,22.160493827160494,0)" xlink:href="#aj"/><use transform="matrix(0.06172839506172839,0,0,0.06172839506172839,29.50617283950617,0)" xlink:href="#ad"/><use transform="matrix(0.06172839506172839,0,0,0.06172839506172839,41.85185185185185,0)" xlink:href="#aj"/><use transform="matrix(0.06172839506172839,0,0,0.06172839506172839,49.197530864197525,0)" xlink:href="#ay"/><use transform="matrix(0.06172839506172839,0,0,0.06172839506172839,64.01234567901234,0)" xlink:href="#aj"/><use transform="matrix(0.06172839506172839,0,0,0.06172839506172839,71.35802469135803,0)" xlink:href="#ad"/><use transform="matrix(0.06172839506172839,0,0,0.06172839506172839,83.70370370370371,0)" xlink:href="#av"/><use transform="matrix(0.06172839506172839,0,0,0.06172839506172839,94.81481481481482,0)" xlink:href="#al"/><use transform="matrix(0.06172839506172839,0,0,0.06172839506172839,107.16049382716051,0)" xlink:href="#az"/><use transform="matrix(0.06172839506172839,0,0,0.06172839506172839,118.27160493827162,0)" xlink:href="#az"/><use transform="matrix(0.06172839506172839,0,0,0.06172839506172839,129.38271604938274,0)" xlink:href="#ag"/><use transform="matrix(0.06172839506172839,0,0,0.06172839506172839,134.25925925925927,0)" xlink:href="#ae"/><use transform="matrix(0.06172839506172839,0,0,0.06172839506172839,146.60493827160494,0)" xlink:href="#ah"/></g><path fill="#333" d="M190-63c-7 42-38 67-86 67-59 0-84-38-90-98-12-110 154-137 174-36l-49 2c-2-19-15-32-35-32-30 0-35 28-38 64-6 74 65 87 74 30" id="aA"/><path fill="#333" d="M135-150c-39-12-60 13-60 57V0H25l-1-190h47c2 13-1 29 3 40 6-28 27-53 61-41v41" id="aB"/><path fill="#333" d="M185-48c-13 30-37 53-82 52C43 2 14-33 14-96s30-98 90-98c62 0 83 45 84 108H66c0 31 8 55 39 56 18 0 30-7 34-22zm-45-69c5-46-57-63-70-21-2 6-4 13-4 21h74" id="aC"/><path fill="#333" d="M133-34C117-15 103 5 69 4 32 3 11-16 11-54c-1-60 55-63 116-61 1-26-3-47-28-47-18 1-26 9-28 27l-52-2c7-38 36-58 82-57s74 22 75 68l1 82c-1 14 12 18 25 15v27c-30 8-71 5-69-32zm-48 3c29 0 43-24 42-57-32 0-66-3-65 30 0 17 8 27 23 27" id="aD"/><path fill="#333" d="M115-3C79 11 28 4 28-45v-112H4v-33h27l15-45h31v45h36v33H77v99c-1 23 16 31 38 25v30" id="aE"/><path fill="#333" d="M67-93c0 74 22 123 53 168H70C40 30 18-18 18-93s22-123 52-168h50c-32 44-53 94-53 168" id="aF"/><g id="k"><use transform="matrix(0.04938271604938272,0,0,0.04938271604938272,0,0)" xlink:href="#aA"/><use transform="matrix(0.04938271604938272,0,0,0.04938271604938272,9.876543209876544,0)" xlink:href="#aB"/><use transform="matrix(0.04938271604938272,0,0,0.04938271604938272,16.790123456790127,0)" xlink:href="#aC"/><use transform="matrix(0.04938271604938272,0,0,0.04938271604938272,26.666666666666668,0)" xlink:href="#aD"/><use transform="matrix(0.04938271604938272,0,0,0.04938271604938272,36.543209876543216,0)" xlink:href="#aE"/><use transform="matrix(0.04938271604938272,0,0,0.04938271604938272,42.41975308641976,0)" xlink:href="#aC"/><use transform="matrix(0.04938271604938272,0,0,0.04938271604938272,52.2962962962963,0)" xlink:href="#aF"/></g><path fill="#333" d="M102-93c0 74-22 123-52 168H0C30 29 54-18 53-93c0-74-22-123-53-168h50c30 45 52 94 52 168" id="aG"/><use transform="matrix(0.04938271604938272,0,0,0.04938271604938272,0,0)" xlink:href="#aG" id="l"/><path fill="#333" d="M110-194c64 0 96 36 96 99 0 64-35 99-97 99-61 0-95-36-95-99 0-62 34-99 96-99zm-1 164c35 0 45-28 45-65 0-40-10-65-43-65-34 0-45 26-45 65 0 36 10 65 43 65" id="aH"/><path fill="#333" d="M135-194c87-1 58 113 63 194h-50c-7-57 23-157-34-157-59 0-34 97-39 157H25l-1-190h47c2 12-1 28 3 38 12-26 28-41 61-42" id="aI"/><path fill="#333" d="M121-226c-27-7-43 5-38 36h38v33H83V0H34v-157H6v-33h28c-9-59 32-81 87-68v32" id="aJ"/><path fill="#333" d="M25-224v-37h50v37H25zM25 0v-190h50V0H25" id="aK"/><path fill="#333" d="M195-6C206 82 75 100 31 46c-4-6-6-13-8-21l49-6c3 16 16 24 34 25 40 0 42-37 40-79-11 22-30 35-61 35-53 0-70-43-70-97 0-56 18-96 73-97 30 0 46 14 59 34l2-30h47zm-90-29c32 0 41-27 41-63 0-35-9-62-40-62-32 0-39 29-40 63 0 36 9 62 39 62" id="aL"/><path fill="#333" d="M85 4C-2 5 27-109 22-190h50c7 57-23 150 33 157 60-5 35-97 40-157h50l1 190h-47c-2-12 1-28-3-38-12 25-28 42-61 42" id="aM"/><g id="m"><use transform="matrix(0.04938271604938272,0,0,0.04938271604938272,0,0)" xlink:href="#aA"/><use transform="matrix(0.04938271604938272,0,0,0.04938271604938272,9.876543209876544,0)" xlink:href="#aH"/><use transform="matrix(0.04938271604938272,0,0,0.04938271604938272,20.69135802469136,0)" xlink:href="#aI"/><use transform="matrix(0.04938271604938272,0,0,0.04938271604938272,31.506172839506174,0)" xlink:href="#aJ"/><use transform="matrix(0.04938271604938272,0,0,0.04938271604938272,37.38271604938272,0)" xlink:href="#aK"/><use transform="matrix(0.04938271604938272,0,0,0.04938271604938272,42.320987654320994,0)" xlink:href="#aL"/><use transform="matrix(0.04938271604938272,0,0,0.04938271604938272,53.135802469135804,0)" xlink:href="#aM"/><use transform="matrix(0.04938271604938272,0,0,0.04938271604938272,63.95061728395062,0)" xlink:href="#aB"/><use transform="matrix(0.04938271604938272,0,0,0.04938271604938272,70.8641975308642,0)" xlink:href="#aC"/><use transform="matrix(0.04938271604938272,0,0,0.04938271604938272,80.74074074074075,0)" xlink:href="#aF"/></g><path fill="#333" d="M25 0v-261h50V0H25" id="aN"/><path fill="#333" d="M135-194c53 0 70 44 70 98 0 56-19 98-73 100-31 1-45-17-59-34 3 33 2 69 2 105H25l-1-265h48c2 10 0 23 3 31 11-24 29-35 60-35zM114-30c33 0 39-31 40-66 0-38-9-64-40-64-56 0-55 130 0 130" id="aO"/><g id="n"><use transform="matrix(0.04938271604938272,0,0,0.04938271604938272,0,0)" xlink:href="#aA"/><use transform="matrix(0.04938271604938272,0,0,0.04938271604938272,9.876543209876544,0)" xlink:href="#aN"/><use transform="matrix(0.04938271604938272,0,0,0.04938271604938272,14.814814814814817,0)" xlink:href="#aC"/><use transform="matrix(0.04938271604938272,0,0,0.04938271604938272,24.69135802469136,0)" xlink:href="#aD"/><use transform="matrix(0.04938271604938272,0,0,0.04938271604938272,34.567901234567906,0)" xlink:href="#aI"/><use transform="matrix(0.04938271604938272,0,0,0.04938271604938272,45.38271604938272,0)" xlink:href="#aM"/><use transform="matrix(0.04938271604938272,0,0,0.04938271604938272,56.19753086419754,0)" xlink:href="#aO"/><use transform="matrix(0.04938271604938272,0,0,0.04938271604938272,67.01234567901236,0)" xlink:href="#aF"/></g><path fill="#333" d="M128 0H69L1-190h53L99-40l48-150h52" id="aP"/><g id="o"><use transform="matrix(0.04938271604938272,0,0,0.04938271604938272,0,0)" xlink:href="#aD"/><use transform="matrix(0.04938271604938272,0,0,0.04938271604938272,9.876543209876544,0)" xlink:href="#aA"/><use transform="matrix(0.04938271604938272,0,0,0.04938271604938272,19.75308641975309,0)" xlink:href="#aE"/><use transform="matrix(0.04938271604938272,0,0,0.04938271604938272,25.629629629629633,0)" xlink:href="#aK"/><use transform="matrix(0.04938271604938272,0,0,0.04938271604938272,30.567901234567906,0)" xlink:href="#aP"/><use transform="matrix(0.04938271604938272,0,0,0.04938271604938272,40.44444444444445,0)" xlink:href="#aD"/><use transform="matrix(0.04938271604938272,0,0,0.04938271604938272,50.320987654320994,0)" xlink:href="#aE"/><use transform="matrix(0.04938271604938272,0,0,0.04938271604938272,56.19753086419754,0)" xlink:href="#aC"/><use transform="matrix(0.04938271604938272,0,0,0.04938271604938272,66.07407407407408,0)" xlink:href="#aF"/></g><path fill="#333" d="M88-194c31-1 46 15 58 34l-1-101h50l1 261h-48c-2-10 0-23-3-31C134-8 116 4 84 4 32 4 16-41 15-95c0-56 19-97 73-99zm17 164c33 0 40-30 41-66 1-37-9-64-41-64s-38 30-39 65c0 43 13 65 39 65" id="aQ"/><g id="p"><use transform="matrix(0.04938271604938272,0,0,0.04938271604938272,0,0)" xlink:href="#aQ"/><use transform="matrix(0.04938271604938272,0,0,0.04938271604938272,10.814814814814815,0)" xlink:href="#aC"/><use transform="matrix(0.04938271604938272,0,0,0.04938271604938272,20.69135802469136,0)" xlink:href="#aD"/><use transform="matrix(0.04938271604938272,0,0,0.04938271604938272,30.567901234567906,0)" xlink:href="#aA"/><use transform="matrix(0.04938271604938272,0,0,0.04938271604938272,40.44444444444445,0)" xlink:href="#aE"/><use transform="matrix(0.04938271604938272,0,0,0.04938271604938272,46.320987654320994,0)" xlink:href="#aK"/><use transform="matrix(0.04938271604938272,0,0,0.04938271604938272,51.25925925925927,0)" xlink:href="#aP"/><use transform="matrix(0.04938271604938272,0,0,0.04938271604938272,61.13580246913581,0)" xlink:href="#aD"/><use transform="matrix(0.04938271604938272,0,0,0.04938271604938272,71.01234567901236,0)" xlink:href="#aE"/><use transform="matrix(0.04938271604938272,0,0,0.04938271604938272,76.8888888888889,0)" xlink:href="#aC"/><use transform="matrix(0.04938271604938272,0,0,0.04938271604938272,86.76543209876544,0)" xlink:href="#aF"/></g><path fill="#333" d="M137-138c1-29-70-34-71-4 15 46 118 7 119 86 1 83-164 76-172 9l43-7c4 19 20 25 44 25 33 8 57-30 24-41C81-84 22-81 20-136c-2-80 154-74 161-7" id="aR"/><path fill="#333" d="M114-157C55-157 80-60 75 0H25v-261h50l-1 109c12-26 28-41 61-42 86-1 58 113 63 194h-50c-7-57 23-157-34-157" id="aS"/><path fill="#333" d="M231 0h-52l-39-155L100 0H48L-1-190h46L77-45c9-52 24-97 36-145h53l37 145 32-145h46" id="aT"/><g id="q"><use transform="matrix(0.04938271604938272,0,0,0.04938271604938272,0,0)" xlink:href="#aR"/><use transform="matrix(0.04938271604938272,0,0,0.04938271604938272,9.876543209876544,0)" xlink:href="#aS"/><use transform="matrix(0.04938271604938272,0,0,0.04938271604938272,20.69135802469136,0)" xlink:href="#aM"/><use transform="matrix(0.04938271604938272,0,0,0.04938271604938272,31.506172839506174,0)" xlink:href="#aE"/><use transform="matrix(0.04938271604938272,0,0,0.04938271604938272,37.38271604938272,0)" xlink:href="#aQ"/><use transform="matrix(0.04938271604938272,0,0,0.04938271604938272,48.19753086419754,0)" xlink:href="#aH"/><use transform="matrix(0.04938271604938272,0,0,0.04938271604938272,59.01234567901235,0)" xlink:href="#aT"/><use transform="matrix(0.04938271604938272,0,0,0.04938271604938272,72.83950617283952,0)" xlink:href="#aI"/><use transform="matrix(0.04938271604938272,0,0,0.04938271604938272,83.65432098765433,0)" xlink:href="#aF"/></g><path fill="#333" d="M123 10C108 53 80 86 19 72V37c35 8 53-11 59-39L3-190h52l48 148c12-52 28-100 44-148h51" id="aU"/><g id="r"><use transform="matrix(0.04938271604938272,0,0,0.04938271604938272,0,0)" xlink:href="#aQ"/><use transform="matrix(0.04938271604938272,0,0,0.04938271604938272,10.814814814814815,0)" xlink:href="#aC"/><use transform="matrix(0.04938271604938272,0,0,0.04938271604938272,20.69135802469136,0)" xlink:href="#aR"/><use transform="matrix(0.04938271604938272,0,0,0.04938271604938272,30.567901234567906,0)" xlink:href="#aE"/><use transform="matrix(0.04938271604938272,0,0,0.04938271604938272,36.44444444444445,0)" xlink:href="#aB"/><use transform="matrix(0.04938271604938272,0,0,0.04938271604938272,43.35802469135803,0)" xlink:href="#aH"/><use transform="matrix(0.04938271604938272,0,0,0.04938271604938272,54.17283950617284,0)" xlink:href="#aU"/><use transform="matrix(0.04938271604938272,0,0,0.04938271604938272,64.0493827160494,0)" xlink:href="#aF"/></g><use transform="matrix(0.06172839506172839,0,0,0.06172839506172839,0,0)" xlink:href="#au" id="s"/><path fill="#282c33" d="M0 4l72-265h28L28 4H0" id="aV"/><g id="t"><use transform="matrix(0.05555555555555554,0,0,0.05555555555555554,0,0)" xlink:href="#ap"/><use transform="matrix(0.05555555555555554,0,0,0.05555555555555554,13.333333333333329,0)" xlink:href="#ar"/><use transform="matrix(0.05555555555555554,0,0,0.05555555555555554,18.888888888888882,0)" xlink:href="#am"/><use transform="matrix(0.05555555555555554,0,0,0.05555555555555554,29.99999999999999,0)" xlink:href="#aj"/><use transform="matrix(0.05555555555555554,0,0,0.05555555555555554,36.6111111111111,0)" xlink:href="#ar"/><use transform="matrix(0.05555555555555554,0,0,0.05555555555555554,42.16666666666666,0)" xlink:href="#aV"/><use transform="matrix(0.05555555555555554,0,0,0.05555555555555554,47.722222222222214,0)" xlink:href="#ap"/><use transform="matrix(0.05555555555555554,0,0,0.05555555555555554,61.055555555555536,0)" xlink:href="#ar"/><use transform="matrix(0.05555555555555554,0,0,0.05555555555555554,66.6111111111111,0)" xlink:href="#ad"/><use transform="matrix(0.05555555555555554,0,0,0.05555555555555554,77.7222222222222,0)" xlink:href="#ao"/></g><path fill="#282c33" d="M210-169c-67 3-38 105-44 169h-31v-121c0-29-5-50-35-48C34-165 62-65 56 0H25l-1-190h30c1 10-1 24 2 32 10-44 99-50 107 0 11-21 27-35 58-36 85-2 47 119 55 194h-31v-121c0-29-5-49-35-48" id="aW"/><path fill="#282c33" d="M179-190L93 31C79 59 56 82 12 73V49c39 6 53-20 64-50L1-190h34L92-34l54-156h33" id="aX"/><g id="u"><use transform="matrix(0.05802469135802466,0,0,0.05802469135802466,0,0)" xlink:href="#ay"/><use transform="matrix(0.05802469135802466,0,0,0.05802469135802466,13.925925925925918,0)" xlink:href="#ag"/><use transform="matrix(0.05802469135802466,0,0,0.05802469135802466,18.509876543209867,0)" xlink:href="#aW"/><use transform="matrix(0.05802469135802466,0,0,0.05802469135802466,35.85925925925924,0)" xlink:href="#am"/><use transform="matrix(0.05802469135802466,0,0,0.05802469135802466,47.46419753086417,0)" xlink:href="#aj"/><use transform="matrix(0.05802469135802466,0,0,0.05802469135802466,54.3691358024691,0)" xlink:href="#aX"/></g><g id="v"><use transform="matrix(0.05802469135802466,0,0,0.05802469135802466,0,0)" xlink:href="#az"/><use transform="matrix(0.05802469135802466,0,0,0.05802469135802466,10.44444444444444,0)" xlink:href="#ar"/><use transform="matrix(0.05802469135802466,0,0,0.05802469135802466,16.246913580246904,0)" xlink:href="#am"/><use transform="matrix(0.05802469135802466,0,0,0.05802469135802466,27.851851851851837,0)" xlink:href="#ar"/><use transform="matrix(0.05802469135802466,0,0,0.05802469135802466,33.6543209876543,0)" xlink:href="#al"/><use transform="matrix(0.05802469135802466,0,0,0.05802469135802466,45.25925925925924,0)" xlink:href="#az"/></g><path fill="#282c33" d="M33 0v-248h34V0H33" id="aY"/><path fill="#282c33" d="M85-194c31 0 48 13 60 33l-1-100h32l1 261h-30c-2-10 0-23-3-31C134-8 116 4 85 4 32 4 16-35 15-94c0-66 23-100 70-100zm9 24c-40 0-46 34-46 75 0 40 6 74 45 74 42 0 51-32 51-76 0-42-9-74-50-73" id="aZ"/><g id="w"><use transform="matrix(0.05802469135802468,0,0,0.05802469135802468,0,0)" xlink:href="#aY"/><use transform="matrix(0.05802469135802468,0,0,0.05802469135802468,5.802469135802468,0)" xlink:href="#ae"/><use transform="matrix(0.05802469135802468,0,0,0.05802469135802468,17.407407407407405,0)" xlink:href="#ar"/><use transform="matrix(0.05802469135802468,0,0,0.05802469135802468,23.209876543209873,0)" xlink:href="#al"/><use transform="matrix(0.05802469135802468,0,0,0.05802469135802468,34.81481481481481,0)" xlink:href="#aj"/><use transform="matrix(0.05802469135802468,0,0,0.05802469135802468,41.71975308641974,0)" xlink:href="#aW"/><use transform="matrix(0.05802469135802468,0,0,0.05802469135802468,59.06913580246912,0)" xlink:href="#al"/><use transform="matrix(0.05802469135802468,0,0,0.05802469135802468,70.67407407407406,0)" xlink:href="#aZ"/><use transform="matrix(0.05802469135802468,0,0,0.05802469135802468,82.27901234567899,0)" xlink:href="#ag"/><use transform="matrix(0.05802469135802468,0,0,0.05802469135802468,86.86296296296294,0)" xlink:href="#am"/><use transform="matrix(0.05802469135802468,0,0,0.05802469135802468,98.46790123456788,0)" xlink:href="#ar"/><use transform="matrix(0.05802469135802468,0,0,0.05802469135802468,104.27037037037034,0)" xlink:href="#al"/></g><g id="x"><use transform="matrix(0.05802469135802468,0,0,0.05802469135802468,0,0)" xlink:href="#az"/><use transform="matrix(0.05802469135802468,0,0,0.05802469135802468,10.444444444444443,0)" xlink:href="#ar"/><use transform="matrix(0.05802469135802468,0,0,0.05802469135802468,16.24691358024691,0)" xlink:href="#am"/><use transform="matrix(0.05802469135802468,0,0,0.05802469135802468,27.851851851851848,0)" xlink:href="#ar"/><use transform="matrix(0.05802469135802468,0,0,0.05802469135802468,33.654320987654316,0)" xlink:href="#al"/><use transform="matrix(0.05802469135802468,0,0,0.05802469135802468,45.25925925925925,0)" xlink:href="#az"/></g><g id="z"><use transform="matrix(0.05555555555555554,0,0,0.05555555555555554,0,0)" xlink:href="#ax"/><use transform="matrix(0.05555555555555554,0,0,0.05555555555555554,13.333333333333329,0)" xlink:href="#aj"/><use transform="matrix(0.05555555555555554,0,0,0.05555555555555554,19.944444444444436,0)" xlink:href="#aj"/><use transform="matrix(0.05555555555555554,0,0,0.05555555555555554,26.555555555555543,0)" xlink:href="#ad"/><use transform="matrix(0.05555555555555554,0,0,0.05555555555555554,37.66666666666665,0)" xlink:href="#aj"/></g><g id="A"><use transform="matrix(0.05555555555555554,0,0,0.05555555555555554,0,0)" xlink:href="#aj"/><use transform="matrix(0.05555555555555554,0,0,0.05555555555555554,6.611111111111109,0)" xlink:href="#am"/><use transform="matrix(0.05555555555555554,0,0,0.05555555555555554,17.722222222222214,0)" xlink:href="#ag"/><use transform="matrix(0.05555555555555554,0,0,0.05555555555555554,22.1111111111111,0)" xlink:href="#az"/><use transform="matrix(0.05555555555555554,0,0,0.05555555555555554,32.1111111111111,0)" xlink:href="#al"/><use transform="matrix(0.05555555555555554,0,0,0.05555555555555554,43.22222222222221,0)" xlink:href="#aZ"/></g><g id="B"><use transform="matrix(0.05555555555555554,0,0,0.05555555555555554,0,0)" xlink:href="#ax"/><use transform="matrix(0.05555555555555554,0,0,0.05555555555555554,13.333333333333329,0)" xlink:href="#aj"/><use transform="matrix(0.05555555555555554,0,0,0.05555555555555554,19.944444444444436,0)" xlink:href="#aj"/><use transform="matrix(0.05555555555555554,0,0,0.05555555555555554,26.555555555555543,0)" xlink:href="#ad"/><use transform="matrix(0.05555555555555554,0,0,0.05555555555555554,37.66666666666665,0)" xlink:href="#aj"/></g><g id="C"><use transform="matrix(0.05555555555555554,0,0,0.05555555555555554,0,0)" xlink:href="#aq"/><use transform="matrix(0.05555555555555554,0,0,0.05555555555555554,11.111111111111107,0)" xlink:href="#am"/><use transform="matrix(0.05555555555555554,0,0,0.05555555555555554,22.222222222222214,0)" xlink:href="#ae"/><use transform="matrix(0.05555555555555554,0,0,0.05555555555555554,33.33333333333332,0)" xlink:href="#aZ"/><use transform="matrix(0.05555555555555554,0,0,0.05555555555555554,44.44444444444443,0)" xlink:href="#ak"/><use transform="matrix(0.05555555555555554,0,0,0.05555555555555554,48.833333333333314,0)" xlink:href="#al"/></g><path fill="#282c33" d="M140-251c81 0 123 46 123 126C263-46 219 4 140 4 59 4 17-45 17-125s42-126 123-126zm0 227c63 0 89-41 89-101s-29-99-89-99c-61 0-89 39-89 99S79-25 140-24" id="ba"/><g id="D"><use transform="matrix(0.05555555555555554,0,0,0.05555555555555554,0,0)" xlink:href="#ba"/><use transform="matrix(0.05555555555555554,0,0,0.05555555555555554,15.55555555555555,0)" xlink:href="#ae"/></g><g id="E"><use transform="matrix(0.05555555555555554,0,0,0.05555555555555554,0,0)" xlink:href="#ap"/><use transform="matrix(0.05555555555555554,0,0,0.05555555555555554,13.333333333333329,0)" xlink:href="#an"/><use transform="matrix(0.05555555555555554,0,0,0.05555555555555554,27.722222222222214,0)" xlink:href="#ac"/><use transform="matrix(0.05555555555555554,0,0,0.05555555555555554,42.1111111111111,0)" xlink:href="#ac"/><use transform="matrix(0.05555555555555554,0,0,0.05555555555555554,56.499999999999986,0)" xlink:href="#ax"/><use transform="matrix(0.05555555555555554,0,0,0.05555555555555554,69.83333333333331,0)" xlink:href="#ap"/><use transform="matrix(0.05555555555555554,0,0,0.05555555555555554,83.16666666666664,0)" xlink:href="#ap"/></g><g id="G"><use transform="matrix(0.05802469135802468,0,0,0.05802469135802468,0,0)" xlink:href="#ap"/><use transform="matrix(0.05802469135802468,0,0,0.05802469135802468,13.925925925925924,0)" xlink:href="#ai"/><use transform="matrix(0.05802469135802468,0,0,0.05802469135802468,25.53086419753086,0)" xlink:href="#ao"/><use transform="matrix(0.05802469135802468,0,0,0.05802469135802468,37.1358024691358,0)" xlink:href="#al"/><use transform="matrix(0.05802469135802468,0,0,0.05802469135802468,48.74074074074073,0)" xlink:href="#aj"/><use transform="matrix(0.05802469135802468,0,0,0.05802469135802468,55.64567901234567,0)" xlink:href="#aw"/><use transform="matrix(0.05802469135802468,0,0,0.05802469135802468,66.09012345679011,0)" xlink:href="#ag"/><use transform="matrix(0.05802469135802468,0,0,0.05802469135802468,70.67407407407406,0)" xlink:href="#az"/><use transform="matrix(0.05802469135802468,0,0,0.05802469135802468,81.1185185185185,0)" xlink:href="#ad"/><use transform="matrix(0.05802469135802468,0,0,0.05802469135802468,92.72345679012344,0)" xlink:href="#aj"/><use transform="matrix(0.05802469135802468,0,0,0.05802469135802468,99.62839506172837,0)" xlink:href="#aX"/></g><g id="H"><use transform="matrix(0.05802469135802468,0,0,0.05802469135802468,0,0)" xlink:href="#ar"/><use transform="matrix(0.05802469135802468,0,0,0.05802469135802468,5.802469135802468,0)" xlink:href="#aj"/><use transform="matrix(0.05802469135802468,0,0,0.05802469135802468,12.707407407407405,0)" xlink:href="#am"/><use transform="matrix(0.05802469135802468,0,0,0.05802469135802468,24.312345679012342,0)" xlink:href="#ae"/><use transform="matrix(0.05802469135802468,0,0,0.05802469135802468,35.917283950617275,0)" xlink:href="#az"/><use transform="matrix(0.05802469135802468,0,0,0.05802469135802468,46.36172839506172,0)" xlink:href="#ag"/><use transform="matrix(0.05802469135802468,0,0,0.05802469135802468,50.945679012345664,0)" xlink:href="#ar"/><use transform="matrix(0.05802469135802468,0,0,0.05802469135802468,56.74814814814813,0)" xlink:href="#ag"/><use transform="matrix(0.05802469135802468,0,0,0.05802469135802468,61.33209876543208,0)" xlink:href="#ad"/><use transform="matrix(0.05802469135802468,0,0,0.05802469135802468,72.93703703703702,0)" xlink:href="#ae"/></g><g id="I"><use transform="matrix(0.05555555555555554,0,0,0.05555555555555554,0,0)" xlink:href="#ba"/><use transform="matrix(0.05555555555555554,0,0,0.05555555555555554,15.55555555555555,0)" xlink:href="#ae"/></g><path fill="#282c33" d="M63-220v92h138v28H63V0H30v-248h175v28H63" id="bb"/><path fill="#282c33" d="M30 0v-248h33v221h125V0H30" id="bc"/><path fill="#282c33" d="M233-177c-1 41-23 64-60 70L243 0h-38l-65-103H63V0H30v-248c88 3 205-21 203 71zM63-129c60-2 137 13 137-47 0-61-80-42-137-45v92" id="bd"/><g id="J"><use transform="matrix(0.05555555555555554,0,0,0.05555555555555554,0,0)" xlink:href="#bb"/><use transform="matrix(0.05555555555555554,0,0,0.05555555555555554,11.055555555555552,0)" xlink:href="#au"/><use transform="matrix(0.05555555555555554,0,0,0.05555555555555554,24.38888888888888,0)" xlink:href="#aY"/><use transform="matrix(0.05555555555555554,0,0,0.05555555555555554,29.944444444444436,0)" xlink:href="#bc"/><use transform="matrix(0.05555555555555554,0,0,0.05555555555555554,41.05555555555554,0)" xlink:href="#an"/><use transform="matrix(0.05555555555555554,0,0,0.05555555555555554,55.44444444444443,0)" xlink:href="#bd"/><use transform="matrix(0.05555555555555554,0,0,0.05555555555555554,69.83333333333331,0)" xlink:href="#ax"/></g><path fill="#282c33" d="M101-251c82-7 93 87 43 132L82-64C71-53 59-42 53-27h129V0H18c2-99 128-94 128-182 0-28-16-43-45-43s-46 15-49 41l-32-3c6-41 34-60 81-64" id="be"/><g id="K"><use transform="matrix(0.08641975308641973,0,0,0.08641975308641973,0,0)" xlink:href="#bd"/><use transform="matrix(0.08641975308641973,0,0,0.08641975308641973,22.38271604938271,0)" xlink:href="#ba"/><use transform="matrix(0.08641975308641973,0,0,0.08641975308641973,46.58024691358024,0)" xlink:href="#ap"/><use transform="matrix(0.08641975308641973,0,0,0.08641975308641973,67.32098765432097,0)" xlink:href="#be"/></g><path fill="#282c33" d="M190 0L58-211 59 0H30v-248h39L202-35l-2-213h31V0h-41" id="bf"/><g id="L"><use transform="matrix(0.08641975308641973,0,0,0.08641975308641973,0,0)" xlink:href="#bf"/><use transform="matrix(0.08641975308641973,0,0,0.08641975308641973,22.38271604938271,0)" xlink:href="#ad"/><use transform="matrix(0.08641975308641973,0,0,0.08641975308641973,39.66666666666666,0)" xlink:href="#aZ"/><use transform="matrix(0.08641975308641973,0,0,0.08641975308641973,56.950617283950606,0)" xlink:href="#al"/></g><g id="M"><use transform="matrix(0.08641975308641973,0,0,0.08641975308641973,0,0)" xlink:href="#bc"/><use transform="matrix(0.08641975308641973,0,0,0.08641975308641973,17.283950617283946,0)" xlink:href="#ag"/><use transform="matrix(0.08641975308641973,0,0,0.08641975308641973,24.111111111111107,0)" xlink:href="#af"/><use transform="matrix(0.08641975308641973,0,0,0.08641975308641973,32.753086419753075,0)" xlink:href="#al"/><use transform="matrix(0.08641975308641973,0,0,0.08641975308641973,50.037037037037024,0)" xlink:href="#av"/><use transform="matrix(0.08641975308641973,0,0,0.08641975308641973,65.59259259259258,0)" xlink:href="#aX"/><use transform="matrix(0.08641975308641973,0,0,0.08641975308641973,81.14814814814814,0)" xlink:href="#av"/><use transform="matrix(0.08641975308641973,0,0,0.08641975308641973,96.70370370370371,0)" xlink:href="#ak"/><use transform="matrix(0.08641975308641973,0,0,0.08641975308641973,103.53086419753086,0)" xlink:href="#al"/></g></defs></g></svg>